<?xml version="1.0" encoding="UTF-8"?><svg id="Layer_1" xmlns="http://www.w3.org/2000/svg" viewBox="0 0 218.01 77.02"><defs><style>.cls-1{fill:#ea0000;stroke:#db0000;stroke-miterlimit:10;}.cls-2{fill:#db0000;}.cls-2,.cls-3,.cls-4{stroke-width:0px;}.cls-3{fill:red;}.cls-4{fill:#ffe000;}</style></defs><rect class="cls-3" x="12.21" y="0" width="35.36" height="10.21" rx="1.55" ry="1.55"/><rect class="cls-3" x="64.95" y="0" width="35.36" height="10.21" rx="1.45" ry="1.45"/><rect class="cls-3" x="117.7" y="0" width="35.36" height="10.21" rx="1.43" ry="1.43"/><rect class="cls-3" x="170.44" y="0" width="35.36" height="10.21" rx=".91" ry=".91"/><rect class="cls-1" x=".5" y="9.9" width="217.01" height="66.62" rx="2.73" ry="2.73"/><path class="cls-2" d="M147.01.02h5.05c.54,0,.98.44.98.98v8.92h-6.03V.02h0Z"/><path class="cls-4" d="M12.06,34.54c0-.77.63-1.4,1.4-1.4h8.24c2.29,0,4.03.55,5.21,1.65s1.78,2.68,1.78,4.75c0,1.25-.23,2.29-.68,3.12-.13.23-.27.45-.43.66-.54.7-.32,1.72.47,2.11.09.04.17.09.25.13.65.36,1.18.81,1.58,1.34.41.53.7,1.12.87,1.78.18.66.26,1.36.26,2.11,0,1.17-.2,2.2-.61,3.1-.41.9-.98,1.66-1.72,2.28-.74.62-1.63,1.08-2.69,1.39s-2.24.46-3.56.46h-9c-.77,0-1.4-.63-1.4-1.4v-22.08ZM18.53,42.91h1.19c2.02,0,3.04-.8,3.04-2.41s-1.01-2.41-3.04-2.41h-1.19v4.82ZM18.53,51.61c0,.77.63,1.4,1.4,1.4h.02c1.63,0,2.79-.21,3.5-.63.7-.42,1.06-1.09,1.06-2.01s-.35-1.6-1.06-2.01c-.7-.42-1.87-.63-3.5-.63h-.02c-.77,0-1.4.63-1.4,1.4v2.48Z"/><path class="cls-4" d="M53.53,58.02h-5.44c-.34,0-.67-.18-.85-.47l-4-6.21c-.55-.85-1.87-.46-1.87.55v5.11c0,.56-.45,1.02-1.02,1.02h-4.44c-.56,0-1.02-.45-1.02-1.02v-22.85c0-.56.45-1.02,1.02-1.02h9.05c1.39,0,2.6.2,3.63.61,1.03.41,1.89.96,2.56,1.67.67.7,1.18,1.52,1.52,2.44.34.92.51,1.91.51,2.97,0,1.89-.46,3.43-1.37,4.6-.67.86-1.57,1.52-2.7,1.97-.64.26-.88,1.03-.46,1.57l5.69,7.41c.51.67.04,1.63-.81,1.63ZM41.37,44.26h1.22c1.28,0,2.25-.26,2.94-.79.68-.53,1.02-1.29,1.02-2.28s-.34-1.75-1.02-2.28c-.68-.53-1.66-.79-2.94-.79h-1.22v6.14Z"/><path class="cls-4" d="M64.76,34.04v23.07c0,.5-.41.91-.91.91h-4.66c-.5,0-.91-.41-.91-.91v-23.07c0-.5.41-.91.91-.91h4.66c.5,0,.91.41.91.91Z"/><path class="cls-4" d="M87.9,40.1c0,.48-.56.71-.91.39-1.32-1.19-2.86-1.78-4.63-1.78-.97,0-1.87.18-2.69.53-.83.35-1.54.83-2.13,1.44s-1.06,1.33-1.4,2.16c-.34.84-.51,1.74-.51,2.71s.17,1.9.51,2.74c.34.84.81,1.56,1.42,2.18.6.62,1.31,1.1,2.13,1.45.81.35,1.69.53,2.64.53,1.7,0,3.26-.6,4.68-1.79.35-.3.89-.06.89.4v6.4l-.66.23c-.99.35-1.91.61-2.77.78-.86.17-1.71.25-2.54.25-1.72,0-3.36-.32-4.93-.97-1.57-.65-2.96-1.56-4.16-2.74-1.2-1.18-2.16-2.57-2.89-4.19-.73-1.62-1.09-3.38-1.09-5.3s.36-3.67,1.07-5.26c.71-1.59,1.67-2.97,2.87-4.12,1.2-1.15,2.59-2.06,4.17-2.71,1.58-.65,3.25-.97,4.98-.97.99,0,1.96.1,2.92.31.85.19,1.74.46,2.67.83.21.08.35.29.35.51v6Z"/><path class="cls-4" d="M100.77,41.76l6.41-8.35c.13-.17.34-.27.56-.27h6.13c.6,0,.92.7.54,1.16l-8.52,10.18c-.22.26-.22.64,0,.9l9.47,11.5c.38.46.05,1.15-.54,1.15h-6.55c-.22,0-.42-.1-.55-.27l-6.95-8.91c-.41-.53-1.26-.24-1.26.43v8.04c0,.39-.31.7-.7.7h-5.06c-.39,0-.7-.31-.7-.7v-23.47c0-.39.31-.7.7-.7h5.06c.39,0,.7.31.7.7v7.49c0,.67.85.96,1.26.43Z"/><path class="cls-4" d="M123.51,33.79l3.35,12.55c.23.85,1.42.88,1.69.05l4.16-12.65c.12-.36.46-.61.84-.61h3.87c.38,0,.72.24.84.61l4.15,12.65c.27.83,1.46.8,1.69-.05l3.35-12.55c.1-.39.45-.65.85-.65h4.9c.59,0,1.01.57.85,1.13l-6.9,23.12c-.11.37-.46.63-.85.63h-5.31c-.38,0-.71-.24-.84-.6l-3.85-11.35c-.27-.8-1.4-.8-1.67,0l-3.85,11.35c-.12.36-.46.6-.84.6h-5.31c-.39,0-.73-.26-.85-.63l-6.9-23.12c-.17-.57.26-1.13.85-1.13h4.9c.4,0,.75.27.85.65Z"/><path class="cls-4" d="M170.31,38.62h-6c-.47,0-.85.38-.85.85v2.47c0,.47.38.85.85.85h5.57c.47,0,.85.38.85.85v3.79c0,.47-.38.85-.85.85h-5.57c-.47,0-.85.38-.85.85v2.6c0,.47.38.85.85.85h6c.47,0,.85.38.85.85v3.79c0,.47-.38.85-.85.85h-12.46c-.47,0-.85-.38-.85-.85v-23.19c0-.47.38-.85.85-.85h12.46c.47,0,.85.38.85.85v3.79c0,.47-.38.85-.85.85Z"/><path class="cls-4" d="M182.28,34.04v17.61c0,.5.4.9.9.9h5.96c.5,0,.9.4.9.9v3.68c0,.5-.4.9-.9.9h-12.43c-.5,0-.9-.4-.9-.9v-23.09c0-.5.4-.9.9-.9h4.67c.5,0,.9.4.9.9Z"/><path class="cls-4" d="M199.83,34.02v17.63c0,.49.4.89.89.89h5.98c.49,0,.89.4.89.89v3.71c0,.49-.4.89-.89.89h-12.45c-.49,0-.89-.4-.89-.89v-23.11c0-.49.4-.89.89-.89h4.7c.49,0,.89.4.89.89Z"/><path class="cls-2" d="M199.79.02h5.05c.54,0,.98.44.98.98v8.92h-6.03V.02h0Z"/><path class="cls-2" d="M94.31,0h5.05c.54,0,.98.44.98.98v8.92h-6.03V0h0Z"/><path class="cls-2" d="M41.58.01h5.05c.54,0,.98.44.98.98v8.92h-6.03V.01h0Z"/></svg>