<svg width="16" height="16" viewBox="0 0 16 16" fill="none" xmlns="http://www.w3.org/2000/svg">
<path d="M14.1524 4.11111L13.4172 13.5549C13.3867 13.9473 13.1953 14.3146 12.8813 14.5828C12.5674 14.8509 12.1544 15 11.7255 15H4.70753C4.27857 15 3.86554 14.8509 3.55163 14.5828C3.23772 14.3146 3.04626 13.9473 3.0158 13.5549L2.2806 4.11111M6.52052 7.22222V11.8889M9.91246 7.22222V11.8889M10.7604 4.11111V1.77778C10.7604 1.5715 10.6711 1.37367 10.5121 1.22781C10.353 1.08194 10.1374 1 9.91246 1H6.52052C6.29562 1 6.07994 1.08194 5.92091 1.22781C5.76188 1.37367 5.67254 1.5715 5.67254 1.77778V4.11111M1.43262 4.11111H15.0004" stroke="#2D334A" stroke-width="2" stroke-linecap="round" stroke-linejoin="round"/>
</svg>
